<?xml version="1.0" encoding="UTF-8" standalone="no"?>
<!DOCTYPE svg PUBLIC "-//W3C//DTD SVG 1.1//EN"
 "http://www.w3.org/Graphics/SVG/1.1/DTD/svg11.dtd">
<!-- Generated by graphviz version 2.40.1 (20161225.0304)
 -->
<!-- Title: %3 Pages: 1 -->
<svg width="206pt" height="188pt"
 viewBox="0.00 0.00 206.00 188.00" xmlns="http://www.w3.org/2000/svg" xmlns:xlink="http://www.w3.org/1999/xlink">
<g id="graph0" class="graph" transform="scale(1 1) rotate(0) translate(4 184)">
<title>%3</title>
<polygon fill="#ffffff" stroke="transparent" points="-4,4 -4,-184 202,-184 202,4 -4,4"/>
<!-- a -->
<g id="node1" class="node">
<title>a</title>
<ellipse fill="none" stroke="#000000" cx="27" cy="-162" rx="27" ry="18"/>
<text text-anchor="middle" x="27" y="-158.3" font-family="Times,serif" font-size="14.00" fill="#000000">x1</text>
</g>
<!-- d -->
<g id="node4" class="node">
<title>d</title>
<ellipse fill="none" stroke="#000000" cx="63" cy="-90" rx="27" ry="18"/>
<text text-anchor="middle" x="63" y="-86.3" font-family="Times,serif" font-size="14.00" fill="#000000">h1</text>
</g>
<!-- a&#45;&#45;d -->
<g id="edge1" class="edge">
<title>a&#45;&#45;d</title>
<path fill="none" stroke="#000000" d="M35.7146,-144.5708C41.3747,-133.2506 48.7216,-118.5568 54.3657,-107.2687"/>
</g>
<!-- e -->
<g id="node5" class="node">
<title>e</title>
<ellipse fill="none" stroke="#000000" cx="135" cy="-90" rx="27" ry="18"/>
<text text-anchor="middle" x="135" y="-86.3" font-family="Times,serif" font-size="14.00" fill="#000000">h2</text>
</g>
<!-- a&#45;&#45;e -->
<g id="edge2" class="edge">
<title>a&#45;&#45;e</title>
<path fill="none" stroke="#000000" d="M46.3082,-149.1278C65.9663,-136.0225 96.2614,-115.8257 115.8589,-102.7607"/>
</g>
<!-- b -->
<g id="node2" class="node">
<title>b</title>
<ellipse fill="none" stroke="#000000" cx="99" cy="-162" rx="27" ry="18"/>
<text text-anchor="middle" x="99" y="-158.3" font-family="Times,serif" font-size="14.00" fill="#000000">x2</text>
</g>
<!-- b&#45;&#45;d -->
<g id="edge3" class="edge">
<title>b&#45;&#45;d</title>
<path fill="none" stroke="#000000" d="M90.2854,-144.5708C84.6253,-133.2506 77.2784,-118.5568 71.6343,-107.2687"/>
</g>
<!-- b&#45;&#45;e -->
<g id="edge4" class="edge">
<title>b&#45;&#45;e</title>
<path fill="none" stroke="#000000" d="M107.7146,-144.5708C113.3747,-133.2506 120.7216,-118.5568 126.3657,-107.2687"/>
</g>
<!-- c -->
<g id="node3" class="node">
<title>c</title>
<ellipse fill="none" stroke="#000000" cx="171" cy="-162" rx="27" ry="18"/>
<text text-anchor="middle" x="171" y="-158.3" font-family="Times,serif" font-size="14.00" fill="#000000">x3</text>
</g>
<!-- c&#45;&#45;d -->
<g id="edge5" class="edge">
<title>c&#45;&#45;d</title>
<path fill="none" stroke="#000000" d="M151.6918,-149.1278C132.0337,-136.0225 101.7386,-115.8257 82.1411,-102.7607"/>
</g>
<!-- c&#45;&#45;e -->
<g id="edge6" class="edge">
<title>c&#45;&#45;e</title>
<path fill="none" stroke="#000000" d="M162.2854,-144.5708C156.6253,-133.2506 149.2784,-118.5568 143.6343,-107.2687"/>
</g>
<!-- f -->
<g id="node6" class="node">
<title>f</title>
<ellipse fill="none" stroke="#000000" cx="99" cy="-18" rx="27" ry="18"/>
</g>
<!-- d&#45;&#45;f -->
<g id="edge7" class="edge">
<title>d&#45;&#45;f</title>
<path fill="none" stroke="#000000" d="M71.7146,-72.5708C77.3747,-61.2506 84.7216,-46.5568 90.3657,-35.2687"/>
</g>
<!-- e&#45;&#45;f -->
<g id="edge8" class="edge">
<title>e&#45;&#45;f</title>
<path fill="none" stroke="#000000" d="M126.2854,-72.5708C120.6253,-61.2506 113.2784,-46.5568 107.6343,-35.2687"/>
</g>
</g>
</svg>
