<?xml version="1.0" encoding="UTF-8" standalone="no"?>
<!DOCTYPE svg PUBLIC "-//W3C//DTD SVG 1.1//EN"
 "http://www.w3.org/Graphics/SVG/1.1/DTD/svg11.dtd">
<!-- Generated by graphviz version 2.40.1 (20161225.0304)
 -->
<!-- Title: %3 Pages: 1 -->
<svg width="278pt" height="188pt"
 viewBox="0.00 0.00 278.00 188.00" xmlns="http://www.w3.org/2000/svg" xmlns:xlink="http://www.w3.org/1999/xlink">
<g id="graph0" class="graph" transform="scale(1 1) rotate(0) translate(4 184)">
<title>%3</title>
<polygon fill="#ffffff" stroke="transparent" points="-4,4 -4,-184 274,-184 274,4 -4,4"/>
<!-- a -->
<g id="node1" class="node">
<title>a</title>
<ellipse fill="none" stroke="#000000" cx="171" cy="-162" rx="27" ry="18"/>
<text text-anchor="middle" x="171" y="-158.3" font-family="Times,serif" font-size="14.00" fill="#000000">x1</text>
</g>
<!-- e -->
<g id="node5" class="node">
<title>e</title>
<ellipse fill="none" stroke="#000000" cx="63" cy="-90" rx="27" ry="18"/>
<text text-anchor="middle" x="63" y="-86.3" font-family="Times,serif" font-size="14.00" fill="#000000">h1</text>
</g>
<!-- a&#45;&#45;e -->
<g id="edge1" class="edge">
<title>a&#45;&#45;e</title>
<path fill="none" stroke="#000000" d="M151.6918,-149.1278C132.0337,-136.0225 101.7386,-115.8257 82.1411,-102.7607"/>
</g>
<!-- f -->
<g id="node6" class="node">
<title>f</title>
<ellipse fill="none" stroke="#000000" cx="135" cy="-90" rx="27" ry="18"/>
<text text-anchor="middle" x="135" y="-86.3" font-family="Times,serif" font-size="14.00" fill="#000000">h2</text>
</g>
<!-- a&#45;&#45;f -->
<g id="edge2" class="edge">
<title>a&#45;&#45;f</title>
<path fill="none" stroke="#000000" d="M162.2854,-144.5708C156.6253,-133.2506 149.2784,-118.5568 143.6343,-107.2687"/>
</g>
<!-- g -->
<g id="node7" class="node">
<title>g</title>
<ellipse fill="none" stroke="#000000" cx="207" cy="-90" rx="27" ry="18"/>
<text text-anchor="middle" x="207" y="-86.3" font-family="Times,serif" font-size="14.00" fill="#000000">h3</text>
</g>
<!-- a&#45;&#45;g -->
<g id="edge3" class="edge">
<title>a&#45;&#45;g</title>
<path fill="none" stroke="#000000" d="M179.7146,-144.5708C185.3747,-133.2506 192.7216,-118.5568 198.3657,-107.2687"/>
</g>
<!-- b -->
<g id="node2" class="node">
<title>b</title>
<ellipse fill="none" stroke="#000000" cx="243" cy="-162" rx="27" ry="18"/>
<text text-anchor="middle" x="243" y="-158.3" font-family="Times,serif" font-size="14.00" fill="#000000">x2</text>
</g>
<!-- b&#45;&#45;e -->
<g id="edge4" class="edge">
<title>b&#45;&#45;e</title>
<path fill="none" stroke="#000000" d="M221.5289,-150.643C216.8008,-148.3177 211.7773,-145.9788 207,-144 160.255,-124.6376 145.745,-127.3624 99,-108 94.2227,-106.0212 89.1992,-103.6823 84.4711,-101.357"/>
</g>
<!-- b&#45;&#45;f -->
<g id="edge5" class="edge">
<title>b&#45;&#45;f</title>
<path fill="none" stroke="#000000" d="M223.6918,-149.1278C204.0337,-136.0225 173.7386,-115.8257 154.1411,-102.7607"/>
</g>
<!-- b&#45;&#45;g -->
<g id="edge6" class="edge">
<title>b&#45;&#45;g</title>
<path fill="none" stroke="#000000" d="M234.2854,-144.5708C228.6253,-133.2506 221.2784,-118.5568 215.6343,-107.2687"/>
</g>
<!-- c -->
<g id="node3" class="node">
<title>c</title>
<ellipse fill="none" stroke="#000000" cx="27" cy="-162" rx="27" ry="18"/>
<text text-anchor="middle" x="27" y="-158.3" font-family="Times,serif" font-size="14.00" fill="#000000">x3</text>
</g>
<!-- c&#45;&#45;e -->
<g id="edge7" class="edge">
<title>c&#45;&#45;e</title>
<path fill="none" stroke="#000000" d="M35.7146,-144.5708C41.3747,-133.2506 48.7216,-118.5568 54.3657,-107.2687"/>
</g>
<!-- c&#45;&#45;f -->
<g id="edge8" class="edge">
<title>c&#45;&#45;f</title>
<path fill="none" stroke="#000000" d="M46.3082,-149.1278C65.9663,-136.0225 96.2614,-115.8257 115.8589,-102.7607"/>
</g>
<!-- c&#45;&#45;g -->
<g id="edge9" class="edge">
<title>c&#45;&#45;g</title>
<path fill="none" stroke="#000000" d="M48.4711,-150.643C53.1992,-148.3177 58.2227,-145.9788 63,-144 109.745,-124.6376 124.255,-127.3624 171,-108 175.7773,-106.0212 180.8008,-103.6823 185.5289,-101.357"/>
</g>
<!-- d -->
<g id="node4" class="node">
<title>d</title>
<ellipse fill="none" stroke="#000000" cx="99" cy="-162" rx="27" ry="18"/>
<text text-anchor="middle" x="99" y="-158.3" font-family="Times,serif" font-size="14.00" fill="#000000">x4</text>
</g>
<!-- d&#45;&#45;e -->
<g id="edge10" class="edge">
<title>d&#45;&#45;e</title>
<path fill="none" stroke="#000000" d="M90.2854,-144.5708C84.6253,-133.2506 77.2784,-118.5568 71.6343,-107.2687"/>
</g>
<!-- d&#45;&#45;f -->
<g id="edge11" class="edge">
<title>d&#45;&#45;f</title>
<path fill="none" stroke="#000000" d="M107.7146,-144.5708C113.3747,-133.2506 120.7216,-118.5568 126.3657,-107.2687"/>
</g>
<!-- d&#45;&#45;g -->
<g id="edge12" class="edge">
<title>d&#45;&#45;g</title>
<path fill="none" stroke="#000000" d="M118.3082,-149.1278C137.9663,-136.0225 168.2614,-115.8257 187.8589,-102.7607"/>
</g>
<!-- h -->
<g id="node8" class="node">
<title>h</title>
<ellipse fill="none" stroke="#000000" cx="99" cy="-18" rx="27" ry="18"/>
</g>
<!-- e&#45;&#45;h -->
<g id="edge13" class="edge">
<title>e&#45;&#45;h</title>
<path fill="none" stroke="#000000" d="M71.7146,-72.5708C77.3747,-61.2506 84.7216,-46.5568 90.3657,-35.2687"/>
</g>
<!-- i -->
<g id="node9" class="node">
<title>i</title>
<ellipse fill="none" stroke="#000000" cx="171" cy="-18" rx="27" ry="18"/>
</g>
<!-- e&#45;&#45;i -->
<g id="edge14" class="edge">
<title>e&#45;&#45;i</title>
<path fill="none" stroke="#000000" d="M82.3082,-77.1278C101.9663,-64.0225 132.2614,-43.8257 151.8589,-30.7607"/>
</g>
<!-- f&#45;&#45;h -->
<g id="edge15" class="edge">
<title>f&#45;&#45;h</title>
<path fill="none" stroke="#000000" d="M126.2854,-72.5708C120.6253,-61.2506 113.2784,-46.5568 107.6343,-35.2687"/>
</g>
<!-- f&#45;&#45;i -->
<g id="edge16" class="edge">
<title>f&#45;&#45;i</title>
<path fill="none" stroke="#000000" d="M143.7146,-72.5708C149.3747,-61.2506 156.7216,-46.5568 162.3657,-35.2687"/>
</g>
<!-- g&#45;&#45;h -->
<g id="edge17" class="edge">
<title>g&#45;&#45;h</title>
<path fill="none" stroke="#000000" d="M187.6918,-77.1278C168.0337,-64.0225 137.7386,-43.8257 118.1411,-30.7607"/>
</g>
<!-- g&#45;&#45;i -->
<g id="edge18" class="edge">
<title>g&#45;&#45;i</title>
<path fill="none" stroke="#000000" d="M198.2854,-72.5708C192.6253,-61.2506 185.2784,-46.5568 179.6343,-35.2687"/>
</g>
</g>
</svg>
